<?xml version="1.0" encoding="UTF-8"?>
<svg version="1.1" xmlns="http://www.w3.org/2000/svg" width="512" height="512">
<path d="M0 0 C0.80278969 -0.00297112 1.60557939 -0.00594224 2.43269604 -0.0090034 C5.13183285 -0.01769847 7.83092535 -0.01919933 10.53007507 -0.02069092 C12.46164546 -0.02531851 14.39321493 -0.03034309 16.32478333 -0.03573608 C21.57897286 -0.04886753 26.83314961 -0.05530646 32.08735299 -0.05974674 C35.36876552 -0.06267619 38.65017454 -0.06678075 41.93158531 -0.07125092 C52.19490458 -0.08492764 62.45821586 -0.09459351 72.72154361 -0.09845281 C84.57552005 -0.10293452 96.42938124 -0.12048696 108.28332263 -0.1494534 C117.44178991 -0.17105757 126.60022474 -0.18115641 135.75871724 -0.18249393 C141.23067253 -0.18354283 146.70251951 -0.18946896 152.17444801 -0.20731354 C157.32164939 -0.22377237 162.46866077 -0.22596033 167.61587906 -0.21717453 C169.50489625 -0.21640299 171.39392356 -0.22076223 173.28291512 -0.23063278 C175.86233966 -0.24332043 178.44108807 -0.23749292 181.02050781 -0.22705078 C182.14099792 -0.23913539 182.14099792 -0.23913539 183.2841242 -0.25146413 C188.84902171 -0.19879935 192.94352032 1.05832034 197.06401062 4.85919189 C197.54225281 5.44700439 198.020495 6.03481689 198.51322937 6.64044189 C199.00436218 7.22825439 199.495495 7.81606689 200.00151062 8.42169189 C202.50725047 12.01298028 202.33257459 15.36039933 202.34790039 19.59751892 C202.35157708 20.25597315 202.35525377 20.91442738 202.35904187 21.59283477 C202.37007234 23.80361728 202.37392147 26.01435278 202.37773132 28.22515869 C202.38399652 29.80866139 202.39064337 31.39216262 202.39764404 32.97566223 C202.41868229 38.18031796 202.42904702 43.38497397 202.43901062 48.58966064 C202.44305843 50.3821241 202.44717536 52.17458741 202.4513607 53.96705055 C202.47041279 62.38935999 202.48464312 70.81166067 202.49297267 79.23398751 C202.50274198 88.95139737 202.52905339 98.66857924 202.56947356 108.38590878 C202.59965244 115.89940987 202.61444328 123.41284569 202.61775368 130.9264062 C202.62010239 135.41255959 202.62903923 139.89846944 202.65421486 144.38455772 C202.67753131 148.60763257 202.68171457 152.83030415 202.67145348 157.05342674 C202.67095885 158.59975019 202.67725769 160.14609373 202.69100952 161.69235611 C202.75831908 169.71222307 202.79269382 176.28151015 198.20072937 183.14044189 C193.63984856 187.7013227 188.82378034 189.24161263 182.45854187 189.33575439 C180.74749447 189.32259249 179.03649955 189.29893589 177.32572937 189.26544189 C176.44658875 189.25641846 175.56744812 189.24739502 174.66166687 189.23809814 C172.50790227 189.21468766 170.35427923 189.17882199 168.20072937 189.14044189 C168.22691345 190.23509766 168.25309753 191.32975342 168.28007507 192.45758057 C168.37076156 196.52947448 168.42804486 200.60127965 168.47538757 204.67388916 C168.50048998 206.43445866 168.53457965 208.19492436 168.57792664 209.95513916 C168.63877052 212.48982368 168.6669805 215.02312764 168.68901062 217.55841064 C168.71481705 218.34193405 168.74062347 219.12545746 168.76721191 219.932724 C168.76934887 224.12221046 168.55169747 225.68682762 165.89677429 229.1182251 C163.06693212 231.24079892 161.07868111 232.17381499 157.49369812 231.94512939 C153.17711791 230.43028183 150.26551643 227.07295345 147.05229187 223.92169189 C144.39479056 221.32971801 141.66640525 219.0120962 138.76322937 216.70294189 C134.23530153 213.05097164 129.95749823 209.20707327 125.70341492 205.24639893 C121.41106182 201.27441254 116.94478585 197.57589586 112.38041687 193.91778564 C110.20072937 192.14044189 110.20072937 192.14044189 108.20072937 190.14044189 C105.99821945 189.68037844 105.99821945 189.68037844 103.57572937 189.51544189 C102.75846375 189.44067627 101.94119812 189.36591064 101.09916687 189.28887939 C100.15944031 189.21540283 100.15944031 189.21540283 99.20072937 189.14044189 C99.40697937 190.41919189 99.61322937 191.69794189 99.82572937 193.01544189 C101.4557885 210.01120549 97.45184884 230.30395552 87.20072937 244.14044189 C86.67737 244.86747314 86.15401062 245.59450439 85.61479187 246.34356689 C81.44996336 251.62292698 76.60341385 254.99935126 70.20072937 257.14044189 C67.39604187 257.26544189 67.39604187 257.26544189 65.20072937 257.14044189 C65.23553406 257.79528564 65.27033875 258.45012939 65.30619812 259.12481689 C65.78326694 275.20885132 59.66708929 290.85710068 48.76322937 302.70294189 C39.41976203 312.39353 29.09455617 319.07172322 16.20072937 323.14044189 C17.57744812 323.28739502 17.57744812 323.28739502 18.98197937 323.43731689 C30.58406632 324.85101657 37.0012999 326.82612652 44.56791687 335.90606689 C48.18379796 340.8541147 48.44088654 345.13651255 48.20072937 351.14044189 C49.19072937 350.81044189 50.18072937 350.48044189 51.20072937 350.14044189 C60.2995954 349.0806738 66.96806664 351.04982857 74.16947937 356.67950439 C94.09080913 375.11547185 98.80859418 411.04294997 100.07963562 436.60821533 C100.47066558 447.78232136 99.92600564 459.05252749 93.57572937 468.57794189 C90.48026304 470.6144329 88.29323193 470.83038474 84.62651062 470.64434814 C71.8059791 467.98114595 62.20382631 453.27766735 55.43266296 443.06134033 C38.20072937 416.19236421 38.20072937 416.19236421 38.20072937 408.14044189 C37.54072937 408.14044189 36.88072937 408.14044189 36.20072937 408.14044189 C35.89135437 409.31606689 35.58197937 410.49169189 35.26322937 411.70294189 C27.58944808 434.54499182 7.393249 455.43682316 -11.79927063 469.14044189 C-12.35308411 469.53715088 -12.90689758 469.93385986 -13.47749329 470.34259033 C-45.43940975 492.8584252 -85.28529764 500.71792682 -123.63911438 494.17559814 C-153.3300392 488.52899545 -177.82982863 474.56879742 -199.79927063 454.14044189 C-200.45540344 453.55005127 -201.11153625 452.95966064 -201.78755188 452.35137939 C-214.35879684 440.53492968 -224.2199653 424.9987675 -230.79927063 409.14044189 C-233.00085744 412.44282211 -234.6867773 415.89663467 -236.42427063 419.45294189 C-245.43571569 437.61171398 -256.08486532 458.1575106 -273.79927063 469.14044189 C-277.52806808 470.38337438 -280.93126528 470.79141735 -284.79927063 470.14044189 C-290.27988869 466.2431135 -292.0204168 460.81836276 -293.36177063 454.48419189 C-297.31784497 424.24848086 -289.91262302 386.29788277 -272.36958313 361.08575439 C-268.17024891 355.79686318 -262.57831997 351.34560622 -255.79927063 350.14044189 C-253.92602875 350.04919516 -252.04972672 350.01038676 -250.17427063 350.01544189 C-249.21263 350.01286377 -248.25098938 350.01028564 -247.26020813 350.00762939 C-244.79927063 350.14044189 -244.79927063 350.14044189 -242.79927063 351.14044189 C-242.76059875 350.30512939 -242.76059875 350.30512939 -242.72114563 349.45294189 C-242.15422511 341.82528401 -240.21436224 336.0287764 -234.42427063 330.82794189 C-229.23870004 326.53940129 -224.06044509 324.76681235 -217.42427063 323.95294189 C-215.55641907 323.71510986 -215.55641907 323.71510986 -213.65083313 323.47247314 C-212.23930969 323.30811768 -212.23930969 323.30811768 -210.79927063 323.14044189 C-211.90721985 322.72085205 -211.90721985 322.72085205 -213.03755188 322.29278564 C-232.27363369 314.69123362 -245.72025523 302.97708832 -254.58442688 284.07012939 C-258.2519779 275.22555299 -259.36005826 266.6668067 -259.79927063 257.14044189 C-260.80989563 257.05794189 -261.82052063 256.97544189 -262.86177063 256.89044189 C-270.38374688 255.77046958 -276.2406793 251.00427092 -280.79927063 245.14044189 C-294.31408291 224.15691756 -296.91890098 198.21518187 -291.77192688 174.04278564 C-288.72461842 161.20753501 -283.03958142 147.79009785 -271.79927063 140.14044189 C-267.4951786 137.50528351 -264.7815263 137.01605826 -259.79927063 137.14044189 C-259.78509094 136.30384033 -259.77091125 135.46723877 -259.75630188 134.60528564 C-258.97435287 115.52150297 -251.22620106 98.74234975 -237.37202454 85.52911377 C-220.39126951 70.53586096 -200.12624466 67.81199342 -178.25898743 67.91339111 C-176.53295397 67.91395651 -174.80692002 67.91363617 -173.08088684 67.9125061 C-168.43506755 67.91193659 -163.78935332 67.92362535 -159.14355826 67.93765402 C-154.27357767 67.95022883 -149.40359418 67.95133717 -144.53359985 67.95370483 C-135.32939988 67.95989988 -126.12524789 67.97628375 -116.92106897 67.99640381 C-106.43487944 68.01882458 -95.94868751 68.02977173 -85.46247995 68.03979468 C-63.90805014 68.06065189 -42.35366342 68.09578914 -20.79927063 68.14044189 C-20.80926338 67.14898415 -20.80926338 67.14898415 -20.81945801 66.13749695 C-20.88595429 59.242939 -20.93113072 52.34847255 -20.96406555 45.45367432 C-20.97912907 42.8823476 -20.99958383 40.31104647 -21.02558899 37.73980713 C-21.06207824 34.03865227 -21.07902184 30.33783789 -21.09223938 26.63653564 C-21.10772324 25.49148056 -21.12320709 24.34642548 -21.13916016 23.16667175 C-21.14062521 16.18001601 -20.87031941 10.64422937 -16.08052063 5.17950439 C-15.49270813 4.71286377 -14.90489563 4.24622314 -14.29927063 3.76544189 C-13.71145813 3.28333252 -13.12364563 2.80122314 -12.51802063 2.30450439 C-8.60177822 -0.34785978 -4.52987001 -0.00520781 0 0 Z " fill="#BED8EE" transform="translate(301.7992706298828,7.85955810546875)"/>
<path d="M0 0 C0.80278969 -0.00297112 1.60557939 -0.00594224 2.43269604 -0.0090034 C5.13183285 -0.01769847 7.83092535 -0.01919933 10.53007507 -0.02069092 C12.46164546 -0.02531851 14.39321493 -0.03034309 16.32478333 -0.03573608 C21.57897286 -0.04886753 26.83314961 -0.05530646 32.08735299 -0.05974674 C35.36876552 -0.06267619 38.65017454 -0.06678075 41.93158531 -0.07125092 C52.19490458 -0.08492764 62.45821586 -0.09459351 72.72154361 -0.09845281 C84.57552005 -0.10293452 96.42938124 -0.12048696 108.28332263 -0.1494534 C117.44178991 -0.17105757 126.60022474 -0.18115641 135.75871724 -0.18249393 C141.23067253 -0.18354283 146.70251951 -0.18946896 152.17444801 -0.20731354 C157.32164939 -0.22377237 162.46866077 -0.22596033 167.61587906 -0.21717453 C169.50489625 -0.21640299 171.39392356 -0.22076223 173.28291512 -0.23063278 C175.86233966 -0.24332043 178.44108807 -0.23749292 181.02050781 -0.22705078 C182.14099792 -0.23913539 182.14099792 -0.23913539 183.2841242 -0.25146413 C188.84902171 -0.19879935 192.94352032 1.05832034 197.06401062 4.85919189 C197.54225281 5.44700439 198.020495 6.03481689 198.51322937 6.64044189 C199.00436218 7.22825439 199.495495 7.81606689 200.00151062 8.42169189 C202.50725047 12.01298028 202.33257459 15.36039933 202.34790039 19.59751892 C202.35157708 20.25597315 202.35525377 20.91442738 202.35904187 21.59283477 C202.37007234 23.80361728 202.37392147 26.01435278 202.37773132 28.22515869 C202.38399652 29.80866139 202.39064337 31.39216262 202.39764404 32.97566223 C202.41868229 38.18031796 202.42904702 43.38497397 202.43901062 48.58966064 C202.44305843 50.3821241 202.44717536 52.17458741 202.4513607 53.96705055 C202.47041279 62.38935999 202.48464312 70.81166067 202.49297267 79.23398751 C202.50274198 88.95139737 202.52905339 98.66857924 202.56947356 108.38590878 C202.59965244 115.89940987 202.61444328 123.41284569 202.61775368 130.9264062 C202.62010239 135.41255959 202.62903923 139.89846944 202.65421486 144.38455772 C202.67753131 148.60763257 202.68171457 152.83030415 202.67145348 157.05342674 C202.67095885 158.59975019 202.67725769 160.14609373 202.69100952 161.69235611 C202.75831908 169.71222307 202.79269382 176.28151015 198.20072937 183.14044189 C193.63984856 187.7013227 188.82378034 189.24161263 182.45854187 189.33575439 C180.74749447 189.32259249 179.03649955 189.29893589 177.32572937 189.26544189 C176.44658875 189.25641846 175.56744812 189.24739502 174.66166687 189.23809814 C172.50790227 189.21468766 170.35427923 189.17882199 168.20072937 189.14044189 C168.22691345 190.23509766 168.25309753 191.32975342 168.28007507 192.45758057 C168.37076156 196.52947448 168.42804486 200.60127965 168.47538757 204.67388916 C168.50048998 206.43445866 168.53457965 208.19492436 168.57792664 209.95513916 C168.63877052 212.48982368 168.6669805 215.02312764 168.68901062 217.55841064 C168.71481705 218.34193405 168.74062347 219.12545746 168.76721191 219.932724 C168.76934887 224.12221046 168.55169747 225.68682762 165.89677429 229.1182251 C163.06693212 231.24079892 161.07868111 232.17381499 157.49369812 231.94512939 C153.17711791 230.43028183 150.26551643 227.07295345 147.05229187 223.92169189 C144.39479056 221.32971801 141.66640525 219.0120962 138.76322937 216.70294189 C134.23530153 213.05097164 129.95749823 209.20707327 125.70341492 205.24639893 C121.41106182 201.27441254 116.94478585 197.57589586 112.38041687 193.91778564 C110.20072937 192.14044189 110.20072937 192.14044189 108.20072937 190.14044189 C100.02118447 188.78056718 91.71847552 188.91944655 83.44682312 188.82403564 C81.93510421 188.80342569 80.42339054 188.78242827 78.91168213 188.76106262 C74.96134218 188.70625877 71.01095388 188.65666835 67.06053162 188.60821533 C63.0180285 188.55769296 58.9755943 188.50216847 54.93315125 188.44708252 C47.02240248 188.34001204 39.11159549 188.23845686 31.20072937 188.14044189 C31.20961182 189.02834412 31.21849426 189.91624634 31.22764587 190.83105469 C31.30816948 199.24489752 31.36888436 207.65860883 31.40797806 216.07275009 C31.42875302 220.39740336 31.45688321 224.72173524 31.50248718 229.04620361 C31.5463089 233.22837685 31.56994213 237.41024316 31.58023834 241.59262848 C31.58756517 243.179261 31.60187063 244.76587888 31.6236496 246.35237885 C31.79321381 259.22972728 30.62325389 271.45798566 21.20072937 281.14044189 C12.76168095 288.68574181 4.40195894 291.28685989 -6.8366394 291.29434204 C-7.64098811 291.29872429 -8.44533681 291.30310655 -9.27405971 291.3076216 C-11.96679196 291.32096594 -14.65949151 291.32717865 -17.35224915 291.33331299 C-19.28423204 291.34121746 -21.21621347 291.34948663 -23.14819336 291.35809326 C-29.49150693 291.3842757 -35.83482697 291.39961819 -42.17817688 291.41387939 C-44.3649286 291.41924082 -46.55168029 291.42461834 -48.73843193 291.43001175 C-57.83767024 291.45163585 -66.9369068 291.47037088 -76.03616428 291.48163414 C-89.05968284 291.497863 -102.08290259 291.53102062 -115.10630852 291.58803499 C-124.27255075 291.62678971 -133.43871325 291.64627345 -142.60503525 291.6515547 C-148.07500733 291.65520083 -153.54466043 291.66714372 -159.01454353 291.69965744 C-164.16516245 291.72983495 -169.31527097 291.73601535 -174.46595955 291.72427368 C-176.34924731 291.72405375 -178.23255942 291.73229167 -180.11576462 291.74992752 C-193.44146997 291.86785848 -204.91049406 290.80989444 -215.04927063 281.09356689 C-222.75028786 272.49868159 -225.09314591 264.67159264 -225.12153625 253.35650635 C-225.13146606 252.39940262 -225.14139587 251.44229889 -225.15162659 250.45619202 C-225.18071701 247.30533924 -225.19444852 244.15468788 -225.20552063 241.00372314 C-225.21117538 239.92186422 -225.21683014 238.8400053 -225.22265625 237.72536278 C-225.25258126 231.99921067 -225.27107669 226.27315856 -225.27973938 220.54693604 C-225.29069487 214.65704328 -225.3387362 208.76807845 -225.39568329 202.87847614 C-225.43308986 198.32715759 -225.44335537 193.77605907 -225.44641113 189.22459984 C-225.45243157 187.05462769 -225.46837764 184.88465789 -225.49478149 182.71483803 C-225.66413005 167.7274094 -224.73206204 157.98414085 -214.79927063 146.14044189 C-212.72114563 144.44512939 -212.72114563 144.44512939 -210.54927063 143.01544189 C-209.84286438 142.53848877 -209.13645813 142.06153564 -208.40864563 141.57012939 C-202.34428828 138.24744258 -197.06649232 136.76487575 -190.07966614 136.77967834 C-189.34595842 136.77711507 -188.6122507 136.7745518 -187.85630941 136.77191085 C-185.42105045 136.76700671 -182.98642467 136.7834092 -180.55122375 136.79986572 C-178.79637161 136.80071273 -177.0415184 136.80023542 -175.28666687 136.79853821 C-170.53926422 136.7976797 -165.79209031 136.81528213 -161.04474068 136.83626008 C-156.0773091 136.8550509 -151.10987191 136.85677922 -146.14241028 136.8603363 C-136.74322857 136.8696497 -127.3441519 136.89425395 -117.94501638 136.92438477 C-107.24130084 136.95795073 -96.53758021 136.97442032 -85.83382511 136.98947108 C-63.82224839 137.02080412 -41.81076613 137.07355091 -19.79927063 137.14044189 C-19.81124355 136.35806561 -19.82321648 135.57568933 -19.83555222 134.76960468 C-19.95065695 127.23459101 -20.06463093 119.69956134 -20.17746902 112.16451341 C-20.23545478 108.29479125 -20.2938128 104.42507561 -20.35316467 100.55537415 C-20.74173552 75.19206532 -20.98691964 49.83065076 -21.12739563 24.46466064 C-21.13460255 23.47179141 -21.14180946 22.47892218 -21.14923477 21.455966 C-21.16524625 15.15352336 -20.38021273 10.0850622 -16.08052063 5.17950439 C-15.49270813 4.71286377 -14.90489563 4.24622314 -14.29927063 3.76544189 C-13.71145813 3.28333252 -13.12364563 2.80122314 -12.51802063 2.30450439 C-8.60177822 -0.34785978 -4.52987001 -0.00520781 0 0 Z " fill="#69C378" transform="translate(301.7992706298828,7.85955810546875)"/>
<path d="M0 0 C1.72441174 -0.00107529 3.44882312 -0.00301763 5.17323303 -0.00575256 C9.81498071 -0.01056027 14.45663085 -0.00299982 19.09836674 0.00720048 C23.96521441 0.01603411 28.83205952 0.01422261 33.69891357 0.01383972 C41.85577005 0.01477305 50.01258907 0.02341785 58.16943359 0.03710938 C67.60876916 0.05289467 77.04806393 0.05810513 86.48741174 0.05737382 C95.57663302 0.05676471 104.665841 0.0618554 113.75505829 0.07016563 C117.62267918 0.07370171 121.49029536 0.07552932 125.35791779 0.07605934 C129.89864036 0.07705996 134.4393284 0.08313332 138.9800396 0.09322548 C140.6502378 0.09615759 142.32043997 0.09737442 143.99064064 0.09679794 C146.26017549 0.09631079 148.52961208 0.10192738 150.7991333 0.10920715 C152.07183704 0.110883 153.34454079 0.11255884 154.65581131 0.11428547 C157.47558594 0.24291992 157.47558594 0.24291992 158.47558594 1.24291992 C158.56980334 3.3597331 158.59301355 5.47972751 158.58911133 7.59863281 C158.58925735 8.26202164 158.58940338 8.92541046 158.58955383 9.60890198 C158.58885474 11.81115948 158.58106259 14.01333337 158.57324219 16.21557617 C158.57137799 17.73872328 158.5699541 19.261871 158.56895447 20.78501892 C158.5651294 24.80129643 158.55529922 28.817538 158.54425049 32.83380127 C158.53403613 36.92915358 158.5294568 41.02451168 158.52441406 45.11987305 C158.51367693 53.1609052 158.49660065 61.20190809 158.47558594 69.24291992 C157.5692831 69.24346469 156.66298027 69.24400946 155.72921371 69.24457073 C133.64349713 69.25955937 111.55798193 69.30209045 89.47237778 69.37501049 C78.79178347 69.40961533 68.11131762 69.4350101 57.43066406 69.43847656 C48.11784152 69.44152272 38.80524802 69.46210078 29.4925139 69.50344449 C24.56465659 69.524717 19.63712445 69.53740472 14.70922089 69.52907372 C10.06333326 69.52149711 5.41810252 69.53750212 0.77233505 69.57098007 C-0.92546529 69.57917004 -2.6233315 69.57901482 -4.32112503 69.56951714 C-15.53902458 69.5130156 -25.49932243 70.63848093 -34.89941406 77.43041992 C-42.49850826 85.57230656 -45.82596771 93.86912497 -45.81494141 104.81567383 C-45.82165863 105.7740918 -45.82837585 106.73250977 -45.83529663 107.7199707 C-45.85428287 110.8865275 -45.85820171 114.05287225 -45.86035156 117.21948242 C-45.86678097 119.42800991 -45.87350944 121.63653655 -45.88052368 123.84506226 C-45.8924994 128.47688774 -45.89620439 133.10863864 -45.89501953 137.74047852 C-45.89481677 143.65498224 -45.9220735 149.56900316 -45.95656395 155.48339272 C-45.97888626 160.04753787 -45.98285537 164.61156804 -45.98180008 169.17576218 C-45.98414975 171.35489942 -45.99293729 173.53404013 -46.00846481 175.71312332 C-46.10645488 190.89068214 -45.97023618 202.67046302 -34.89550781 214.14526367 C-31.68558196 216.98501685 -28.54475068 218.81208445 -24.52441406 220.24291992 C-23.66128979 220.58236728 -22.79816551 220.92181463 -21.90888596 221.27154827 C-17.99724684 222.39422131 -14.38369729 222.52403164 -10.35333252 222.50361633 C-9.54671826 222.50744188 -8.740104 222.51126743 -7.90904689 222.5152089 C-5.21468832 222.52550165 -2.52054434 222.52155381 0.17382812 222.51757812 C2.10920407 222.52192674 4.04457829 222.52711039 5.97994995 222.5330658 C11.23218411 222.54645306 16.4843463 222.5470346 21.7365942 222.5445025 C26.12504824 222.54343228 30.51348775 222.54831761 34.90193868 222.55310792 C45.25918112 222.56420285 55.6163873 222.56464103 65.97363281 222.55859375 C76.6470301 222.55255749 87.32029545 222.56485622 97.99367023 222.58616382 C107.16585464 222.60379914 116.33799714 222.609778 125.51019788 222.60652608 C130.98446314 222.60471566 136.45863435 222.60732509 141.93288422 222.62124062 C147.08425335 222.63384518 152.2354175 222.63184993 157.3867836 222.61882973 C159.27250616 222.61646987 161.15824325 222.61917737 163.04394913 222.62745285 C176.396869 222.68180502 187.79463944 222.24279614 198.47558594 213.24291992 C207.33095248 204.42699822 208.97390577 192.725612 209.08123779 180.75335693 C209.08289998 179.20300332 209.08413135 177.6526492 209.08496094 176.10229492 C209.09997501 174.4827512 209.11670881 172.8632226 209.1350708 171.24371338 C209.17839512 167.02210713 209.19866495 162.80070727 209.21380615 158.57891846 C209.23697999 153.49160064 209.28936831 148.40450647 209.33674622 143.31736755 C209.40516565 135.62582733 209.43693264 127.93492625 209.47558594 120.24291992 C231.91558594 120.24291992 254.35558594 120.24291992 277.47558594 120.24291992 C278.65542305 133.22112821 278.65542305 133.22112821 277.85058594 139.86791992 C277.71571777 141.00680664 277.71571777 141.00680664 277.578125 142.16870117 C275.96753842 154.31081808 272.85317225 166.28499553 265.47558594 176.24291992 C264.95222656 176.96995117 264.42886719 177.69698242 263.88964844 178.44604492 C259.72481993 183.72540501 254.87827042 187.10182929 248.47558594 189.24291992 C245.67089844 189.36791992 245.67089844 189.36791992 243.47558594 189.24291992 C243.51039063 189.89776367 243.54519531 190.55260742 243.58105469 191.22729492 C244.05812351 207.31132935 237.94194585 222.95957871 227.03808594 234.80541992 C214.62782406 247.67673758 198.67491342 257.03943046 180.42614841 257.377141 C178.91177135 257.38645082 177.39735547 257.39045161 175.88294983 257.39009094 C175.04296257 257.39376763 174.20297531 257.39744432 173.33753389 257.40123242 C170.53597005 257.41220416 167.73444338 257.41610201 164.93286133 257.41992188 C162.91840499 257.42619156 160.9039498 257.4328388 158.88949585 257.43983459 C152.28408607 257.46082138 145.67867621 257.47123355 139.07324219 257.48120117 C136.79309006 257.48525106 134.51293806 257.48936805 132.23278618 257.49355125 C121.51561648 257.51259293 110.79845362 257.52682481 100.08127028 257.53516322 C87.74065882 257.54492508 75.40022722 257.57122158 63.05967909 257.61166412 C53.50182832 257.64190406 43.94402888 257.65663965 34.38613123 257.65994424 C28.6869615 257.66228614 22.98798413 257.67113401 17.28886604 257.69640541 C11.91993566 257.71982863 6.55132237 257.72386245 1.18235397 257.71364403 C-0.77664945 257.71315197 -2.73566925 257.71937366 -4.69462395 257.73320007 C-26.92078779 257.88116134 -46.03998755 253.35098966 -62.52441406 237.24291992 C-75.00545459 223.00704115 -80.66131182 207.96330993 -81.52441406 189.24291992 C-82.53503906 189.16041992 -83.54566406 189.07791992 -84.58691406 188.99291992 C-92.10889032 187.8729476 -97.96582273 183.10674894 -102.52441406 177.24291992 C-116.03922634 156.25939559 -118.64404441 130.3176599 -113.49707031 106.14526367 C-110.44976185 93.31001303 -104.76472485 79.89257587 -93.52441406 72.24291992 C-89.22032203 69.60776154 -86.50666974 69.11853629 -81.52441406 69.24291992 C-81.51023438 68.40631836 -81.49605469 67.5697168 -81.48144531 66.70776367 C-80.6994963 47.623981 -72.9513445 30.84482777 -59.09716797 17.6315918 C-42.1223212 2.64355572 -21.85950376 -0.07992911 0 0 Z " fill="#D6E8FE" transform="translate(123.5244140625,75.757080078125)"/>
<path d="M0 0 C0.73370772 -0.00256327 1.46741544 -0.00512655 2.22335672 -0.0077675 C4.65861568 -0.01267164 7.09324146 0.00373085 9.52844238 0.02018738 C11.28329453 0.02103438 13.03814774 0.02055707 14.79299927 0.01885986 C19.54040192 0.01800135 24.28757583 0.03560378 29.03492546 0.05658174 C34.00235704 0.07537256 38.96979422 0.07710087 43.93725586 0.08065796 C53.33643757 0.08997136 62.73551424 0.11457561 72.13464975 0.14470643 C82.8383653 0.17827238 93.54208593 0.19474197 104.24584103 0.20979273 C126.25743079 0.24112579 148.2688766 0.29612908 170.28039551 0.36076355 C170.28039551 11.91076355 170.28039551 23.46076355 170.28039551 35.36076355 C167.31039551 35.36076355 164.34039551 35.36076355 161.28039551 35.36076355 C154.20613215 37.43524348 149.90391309 41.0488297 146.28039551 47.36076355 C144.27896861 53.36504424 144.56546276 59.38467735 146.96789551 65.23576355 C148.82230352 68.93156619 150.71213055 71.15183762 154.28039551 73.36076355 C155.16727051 73.93826355 156.05414551 74.51576355 156.96789551 75.11076355 C162.86532393 77.33620824 168.72167847 77.37991556 174.53039551 74.79826355 C179.53369636 71.95663224 183.45496969 67.83704102 185.28039551 62.36076355 C185.61039551 58.73076355 185.94039551 55.10076355 186.28039551 51.36076355 C197.83039551 51.36076355 209.38039551 51.36076355 221.28039551 51.36076355 C221.44083075 69.09777034 221.44083075 69.09777034 221.47570801 76.7240448 C221.49951553 81.90504067 221.52751912 87.08575077 221.58215332 92.26652527 C221.62597504 96.44869851 221.64960826 100.63056482 221.65990448 104.81295013 C221.66723131 106.39958266 221.68153676 107.98620054 221.70331573 109.5727005 C221.87287995 122.45004893 220.70292003 134.67830732 211.28039551 144.36076355 C202.84134709 151.90606346 194.48162507 154.50718154 183.24302673 154.5146637 C182.03650368 154.52123708 182.03650368 154.52123708 180.80560642 154.52794325 C178.11287418 154.5412876 175.42017462 154.54750031 172.72741699 154.55363464 C170.7954341 154.56153912 168.86345267 154.56980828 166.93147278 154.57841492 C160.58815921 154.60459735 154.24483916 154.61993984 147.90148926 154.63420105 C145.71473753 154.63956248 143.52798585 154.64493999 141.34123421 154.6503334 C132.2419959 154.67195751 123.14275934 154.69069254 114.04350185 154.7019558 C101.0199833 154.71818466 87.99676355 154.75134228 74.97335762 154.80835664 C65.80711538 154.84711137 56.64095288 154.86659511 47.47463089 154.87187636 C42.00465881 154.87552249 36.5350057 154.88746538 31.0651226 154.9199791 C25.91450369 154.95015661 20.76439517 154.956337 15.61370659 154.94459534 C13.73041883 154.94437541 11.84710671 154.95261332 9.96390152 154.97024918 C-3.36180383 155.08818014 -14.83082792 154.0302161 -24.96960449 144.31388855 C-32.67062172 135.71900325 -35.01347977 127.8919143 -35.04187012 116.576828 C-35.05179993 115.61972427 -35.06172974 114.66262054 -35.07196045 113.67651367 C-35.10105087 110.5256609 -35.11478239 107.37500953 -35.12585449 104.2240448 C-35.13150925 103.14218588 -35.137164 102.06032696 -35.14299011 100.94568443 C-35.17291513 95.21953233 -35.19141055 89.49348022 -35.20007324 83.76725769 C-35.21102873 77.87736494 -35.25907006 71.98840011 -35.31601715 66.0987978 C-35.35342372 61.54747924 -35.36368923 56.99638073 -35.366745 52.44492149 C-35.37276543 50.27494934 -35.3887115 48.10497954 -35.41511536 45.93515968 C-35.58446391 30.94773106 -34.6523959 21.20446251 -24.71960449 9.36076355 C-22.64147949 7.66545105 -22.64147949 7.66545105 -20.46960449 6.23576355 C-19.76319824 5.75881042 -19.05679199 5.2818573 -18.32897949 4.79045105 C-12.26462214 1.46776424 -6.98682618 -0.0148026 0 0 Z " fill="#193870" transform="translate(111.7196044921875,144.6392364501953)"/>
<path d="M0 0 C5.29091947 3.63026591 7.86498692 7.62468022 10.05078125 13.5859375 C10.3040818 14.99525863 10.50964434 16.41370484 10.67578125 17.8359375 C10.78148438 18.61582031 10.8871875 19.39570313 10.99609375 20.19921875 C13.00792113 50.42036479 -8.05838805 83.51068997 -26.94921875 105.2734375 C-32.25191304 111.03965402 -37.13203335 115.43024214 -45.19921875 116.2109375 C-48.532624 116.1497741 -49.26852756 115.87554012 -52.13671875 113.8359375 C-62.22060338 100.00661001 -59.16909779 78.56016199 -56.73657227 62.6574707 C-53.34184018 42.29098 -47.89618792 13.42437967 -30.30859375 0.3359375 C-20.33082739 -6.16808798 -10.38666198 -5.73893385 0 0 Z " fill="#D7E9FE" transform="translate(66.32421875,362.1640625)"/>
<path d="M0 0 C14.74388331 8.35175669 21.04634489 25.03627684 25.51367188 40.59765625 C31.08128003 61.57048915 39.43699402 93.71001035 27.75 113.9375 C26.01402546 116.54146181 24.87772221 117.67655824 21.80859375 118.38671875 C15.00730828 118.91899327 10.82846639 116.18574754 5.75 111.9375 C-6.55026298 101.32933669 -14.80114807 87.16849608 -22.25 72.9375 C-22.60336426 72.27411621 -22.95672852 71.61073242 -23.32080078 70.92724609 C-32.11291346 54.23156374 -39.41815429 34.49947732 -35.76953125 15.42578125 C-33.86948766 9.380188 -30.0933245 4.73328389 -24.80078125 1.390625 C-16.41807245 -2.86649958 -8.70048307 -3.96194463 0 0 Z " fill="#D7E9FE" transform="translate(369.25,360.0625)"/>
<path d="M0 0 C7.60741983 5.66485238 13.70035589 13.44181859 15.5546875 22.90234375 C16.49727759 34.30613866 14.48026411 43.13217916 7.23828125 52.08984375 C0.28275205 59.57793087 -8.67147235 63.96266443 -18.9453125 64.40234375 C-28.17261118 64.00745222 -36.86109302 60.41436784 -43.4453125 53.90234375 C-45.76961207 51.05507677 -47.6646194 48.11424812 -49.4453125 44.90234375 C-49.78691406 44.31066406 -50.12851563 43.71898437 -50.48046875 43.109375 C-54.07292702 35.54014897 -53.83473917 25.36072383 -51.37890625 17.48046875 C-46.98250394 8.04078204 -40.51542192 0.73254828 -30.76171875 -3.2421875 C-20.32937463 -5.93321619 -9.40090276 -5.5337724 0 0 Z " fill="#1A3971" transform="translate(223.4453125,380.09765625)"/>
<path d="M0 0 C0 39.6 0 79.2 0 120 C-8.91110281 118.88611215 -14.13291857 116.74415152 -20.171875 110.3515625 C-34.28753938 92.19423354 -37.25172546 67.65788749 -34.50390625 45.37109375 C-32.27574996 30.36459536 -27.16381171 13.76571014 -14.68359375 4.1484375 C-9.21493436 0.41807588 -6.97255362 0 0 0 Z " fill="#B0CADC" transform="translate(43,145)"/>
<path d="M0 0 C1.40148555 -0.00677867 2.80296219 -0.01568322 4.204422 -0.02655029 C8.00414989 -0.04932132 11.8031981 -0.04051695 15.6029377 -0.02465487 C19.58178649 -0.01198423 23.5605776 -0.02373919 27.53942871 -0.03158569 C34.22089065 -0.04067891 40.90207614 -0.02870312 47.58349609 -0.00488281 C55.3050564 0.02232809 63.02595659 0.01351368 70.7475009 -0.01401484 C77.38037877 -0.03671442 84.01305807 -0.03990192 90.64596224 -0.02682149 C94.60605977 -0.01903155 98.56584715 -0.01797252 102.52592468 -0.03450394 C106.24935956 -0.04896211 109.97194453 -0.03890387 113.6952877 -0.01003265 C115.71126008 -0.00028184 117.72730445 -0.01511063 119.74324036 -0.03067017 C129.59335701 0.08478521 129.59335701 0.08478521 132.70056152 2.9647522 C134.92074797 6.50056446 135.05585023 8.54590009 134.38476562 12.64697266 C132.51768058 15.01194705 131.06415132 16.30727981 128.38476562 17.64697266 C126.5210623 17.75120754 124.65362215 17.79086029 122.78703308 17.8008728 C121.59669968 17.80947327 120.40636627 17.81807373 119.17996216 17.82693481 C117.21082352 17.83332474 117.21082352 17.83332474 115.2019043 17.83984375 C113.8107228 17.84774406 112.41954336 17.85601296 111.02836609 17.86462402 C106.45317545 17.89085154 101.87797562 17.90615196 97.30273438 17.92041016 C95.72844245 17.92576946 94.15415058 17.93114697 92.57985878 17.93654251 C86.03193423 17.95817194 79.48401215 17.97690921 72.93606091 17.9881649 C63.54815639 18.00440789 54.16066553 18.03759298 44.77291697 18.09456575 C38.17412691 18.13324917 31.57544755 18.15279564 24.97654706 18.15808547 C21.03421228 18.16174106 17.0923186 18.17378359 13.15010643 18.2061882 C9.44077408 18.23624142 5.73215034 18.24259108 2.02272224 18.23080444 C0.01379902 18.23047817 -1.99508028 18.25496202 -4.00384521 18.28018188 C-13.82214068 18.21205226 -13.82214068 18.21205226 -16.92436218 15.32925415 C-19.17835584 11.75367612 -19.35670387 9.79920182 -18.61523438 5.64697266 C-14.24127867 -1.29263749 -7.5120487 -0.05798003 0 0 Z " fill="#55A060" transform="translate(334.615234375,93.35302734375)"/>
<path d="M0 0 C1.18336441 -0.00426498 2.36672882 -0.00852997 3.58595276 -0.01292419 C4.89093216 -0.01247101 6.19591156 -0.01201782 7.54043579 -0.0115509 C8.92338655 -0.01454183 10.30633647 -0.0179442 11.68928528 -0.02172852 C15.45171657 -0.03058011 19.21412514 -0.03290713 22.97656584 -0.0335443 C26.11526119 -0.03449266 29.25395122 -0.03817017 32.39264452 -0.0417164 C39.797217 -0.04986557 47.20177732 -0.05230023 54.60635376 -0.05158997 C62.24871831 -0.05098922 69.89101225 -0.06153929 77.53335893 -0.07733363 C84.09052341 -0.09040316 90.6476648 -0.0957741 97.20484221 -0.09513456 C101.12294915 -0.09487937 105.04099339 -0.09774176 108.95908737 -0.10831261 C112.6444493 -0.1179836 116.32968848 -0.11807968 120.0150547 -0.11079597 C122.013374 -0.10924926 124.01169325 -0.11760409 126.00999451 -0.12623596 C127.19899857 -0.12204147 128.38800262 -0.11784698 129.61303711 -0.11352539 C131.16328362 -0.11434254 131.16328362 -0.11434254 132.74484825 -0.1151762 C135.52977383 0.14262464 137.11657022 0.59185363 139.4335022 2.13371277 C141.93381874 5.88418759 141.96953774 7.69227543 141.4335022 12.13371277 C139.78606177 14.77345025 139.10049351 15.71347348 136.4335022 17.13371277 C131.90273876 17.89939454 127.403843 17.81607814 122.81826782 17.78068542 C121.41678227 17.7874641 120.01530564 17.79636864 118.61384583 17.80723572 C114.81411793 17.83000675 111.01506972 17.82120237 107.21533012 17.80534029 C103.23648133 17.79266966 99.25769022 17.80442462 95.27883911 17.81227112 C88.59737717 17.82136434 81.91619168 17.80938855 75.23477173 17.78556824 C67.51321142 17.75835733 59.79231124 17.76717175 52.07076693 17.79470026 C45.43788905 17.81739985 38.80520975 17.82058735 32.17230558 17.80750692 C28.21220805 17.79971697 24.25242067 17.79865794 20.29234314 17.81518936 C16.56890826 17.82964754 12.8463233 17.81958929 9.12298012 17.79071808 C7.10700774 17.78096727 5.09096337 17.79579605 3.07502747 17.81135559 C-6.77508918 17.69590021 -6.77508918 17.69590021 -9.8822937 14.81593323 C-12.10248015 11.28012097 -12.2375824 9.23478534 -11.5664978 5.13371277 C-8.04189738 0.6692189 -5.51343844 0.00894672 0 0 Z " fill="#55A060" transform="translate(327.5664978027344,50.86628723144531)"/>
<path d="M0 0 C1.15322754 -0.0087616 2.30645508 -0.01752319 3.49462891 -0.02655029 C7.31263687 -0.04858443 11.1294897 -0.03397473 14.94750977 -0.01708984 C17.59783879 -0.02045703 20.24813256 -0.025301 22.89845276 -0.03158569 C28.45602968 -0.04068034 34.01327432 -0.02870097 39.57080078 -0.00488281 C45.99101274 0.02231532 52.41043046 0.0135241 58.83062309 -0.01401484 C64.34672882 -0.0367266 69.86259582 -0.03989568 75.37873322 -0.02682149 C78.6715475 -0.01903632 81.9639079 -0.01992889 85.25671196 -0.03450394 C88.92950105 -0.04719141 92.60076231 -0.02786066 96.2734375 0 C97.36191483 -0.01012115 98.45039215 -0.02024231 99.57185364 -0.03067017 C106.90569717 0.07248538 106.90569717 0.07248538 110.91175842 2.9647522 C112.70141602 5.64697266 112.70141602 5.64697266 112.76391602 9.20947266 C111.63710648 12.85503291 110.66141316 14.31485369 107.70141602 16.64697266 C105.30393868 17.84571132 103.80625624 17.78051703 101.12870789 17.79414368 C100.16555664 17.80129898 99.2024054 17.80845428 98.21006775 17.81582642 C97.14977859 17.81851532 96.08948944 17.82120422 94.99707031 17.82397461 C93.88314911 17.83054581 92.76922791 17.837117 91.62155151 17.84388733 C87.92291198 17.86365264 84.22431308 17.87528957 80.52563477 17.88525391 C78.63463012 17.8913672 78.63463012 17.8913672 76.70542336 17.89760399 C70.72266619 17.91632357 64.73993377 17.93088683 58.75715512 17.93921596 C51.85204869 17.94898792 44.94726287 17.97530581 38.04226941 18.01571685 C32.06111396 18.04951934 26.08011413 18.06136125 20.09885597 18.06542015 C17.55470416 18.07030038 15.01055611 18.08195488 12.4664669 18.10045815 C8.90869811 18.12472731 5.35177102 18.12390656 1.79394531 18.11694336 C0.21262062 18.13615845 0.21262062 18.13615845 -1.40065002 18.15576172 C-8.5460894 18.10469536 -8.5460894 18.10469536 -12.42936707 15.74259949 C-14.66951003 13.23111799 -15.23838964 12.18872172 -15.61108398 8.83447266 C-14.67951658 -0.66751486 -7.75128015 -0.07194112 0 0 Z " fill="#55A060" transform="translate(331.298583984375,136.35302734375)"/>
<path d="M0 0 C11.22 0 22.44 0 34 0 C35.17983712 12.97820829 35.17983712 12.97820829 34.375 19.625 C34.28508789 20.38425781 34.19517578 21.14351562 34.10253906 21.92578125 C32.49195248 34.06789815 29.37758632 46.04207561 22 56 C21.47664063 56.72703125 20.95328125 57.4540625 20.4140625 58.203125 C16.24923399 63.48248508 11.40268448 66.85890937 5 69 C3.35 69 1.7 69 0 69 C0 46.23 0 23.46 0 0 Z " fill="#AFCADB" transform="translate(367,196)"/>
<path d="M0 0 C1.84387872 -0.0165225 3.68769438 -0.04376353 5.53125 -0.08203125 C8.19101156 -0.1369702 10.84926787 -0.158703 13.50952148 -0.17333984 C14.32849411 -0.19600922 15.14746674 -0.21867859 15.99125671 -0.24203491 C20.15619664 -0.22676043 22.80128186 0.0872232 26.11376953 2.73535156 C28.59155273 5.35009766 28.59155273 5.35009766 29.31811523 7.70947266 C28.97145632 15.86929016 26.92029293 22.13571762 21.34155273 28.22509766 C14.71090258 34.24154021 7.89180207 35.04558051 -0.93188477 34.81884766 C-7.45235741 33.9396828 -12.06571527 31.1320919 -16.28344727 26.12353516 C-20.16302587 20.54664091 -22.93718694 15.17667629 -22.80688477 8.28369141 C-22.12698111 4.98415895 -19.93948141 3.38727148 -17.40844727 1.35009766 C-14.5257906 -1.53255901 -4.08521285 0.02683584 0 0 Z " fill="#20D7D8" transform="translate(201.408447265625,229.64990234375)"/>
<path d="M0 0 C4.96702439 2.80657069 9.25882565 7.39265129 11.8125 12.5 C11.96227039 14.74655587 12.03400174 16.99863768 12.0625 19.25 C12.08828125 20.46171875 12.1140625 21.6734375 12.140625 22.921875 C11.6060896 28.75085632 9.35434903 32.50341211 4.9375 36.25 C-0.50116144 40.71324934 -4.60178334 41.98609908 -11.62890625 41.80859375 C-18.38798277 40.99337689 -22.71615293 37.48924745 -26.9609375 32.37890625 C-30.670527 26.6963822 -30.92842771 21.10351821 -30.1875 14.5 C-28.03693541 7.25406361 -23.58366272 3.73837997 -17.4375 -0.3125 C-11.59866228 -2.44592148 -5.74851125 -2.5114855 0 0 Z " fill="#20D8D9" transform="translate(141.1875,180.5)"/>
<path d="M0 0 C1.8871875 0.0309375 1.8871875 0.0309375 3.8125 0.0625 C4.03164063 0.72636719 4.25078125 1.39023438 4.4765625 2.07421875 C6.64007892 8.09864456 8.34053261 11.62910869 13.8125 15.0625 C16.15332738 15.95267379 18.35432097 16.52170061 20.8125 17.0625 C21.39272116 29.13969591 21.39272116 29.13969591 17.8125 34.0625 C12.38346975 39.60904172 7.93335569 43.01563965 0.0625 43.5 C-6.3247408 43.35721518 -11.10366468 40.86803798 -15.7890625 36.60546875 C-20.57682239 31.29973484 -21.74264472 25.59631887 -21.5546875 18.65234375 C-20.76019318 13.04862317 -18.29194899 8.81682175 -13.95703125 5.203125 C-9.38656571 2.0716478 -5.6462437 -0.09256137 0 0 Z " fill="#21D8D9" transform="translate(277.1875,178.9375)"/>
</svg>
